<svg width="170" height="70" viewBox="0 0 170 70" fill="none" xmlns="http://www.w3.org/2000/svg">
<g clip-path="url(#clip0)">
<path d="M169.402 69.3776H0.988281V1.02832H169.427V69.3776H169.402Z" fill="#0058A3"/>
<rect x="-30" y="-41" width="230" height="153" fill="#F8F8F8"/>
<path d="M4.27344 35.2029C4.27344 51.7235 38.188 65.4464 85.2097 65.4464C132.231 65.4464 166.122 51.7235 166.122 35.2029C166.122 18.6824 132.207 4.95947 85.2097 4.95947C38.2121 4.95947 4.27344 18.6824 4.27344 35.2029Z" fill="#FFDB00"/>
<path d="M57.934 22.059C57.5719 22.7825 57.5719 23.4819 57.5719 24.2055V33.2496C57.5719 33.2496 62.4237 26.9549 63.5341 25.4596C64.3789 24.3502 65.4169 22.7825 65.4169 22.059H81.2517C80.1655 22.7825 78.9586 24.0849 77.9689 25.2907C77.0999 26.3519 72.1756 32.3572 72.1756 32.3572C72.1756 32.3572 79.4896 43.4754 80.431 44.8983C80.962 45.6701 81.5414 46.3936 82.2173 47.0448H63.9927C63.9927 46.3213 63.2927 44.8501 62.5203 43.6925C61.7478 42.5348 57.5719 36.1919 57.5719 36.1919V44.8983C57.5719 45.6219 57.5719 46.3213 57.934 47.0448H42.7509C43.1129 46.3213 43.1129 45.6219 43.1129 44.8983V24.2055C43.1129 23.4819 43.1129 22.7825 42.7509 22.059H57.934ZM114.152 22.059H84.8484C85.2104 22.7825 85.2104 23.4819 85.2104 24.2055V44.8983C85.2104 45.6219 85.2104 46.3213 84.8484 47.0448H114.152V40.1231C113.428 40.4848 112.728 40.4848 112.004 40.4848H99.6694V37.2048H111.521V31.9231H99.6694V28.619H112.004C112.728 28.619 113.428 28.619 114.152 28.9566V22.059ZM154.753 44.8983C154.995 45.6942 155.405 46.4178 155.936 47.0448H140.053C140.125 46.3213 139.86 45.6219 139.57 44.8983C139.57 44.8983 139.329 44.3195 138.991 43.4754L138.846 43.1136H129.698L129.553 43.4995C129.553 43.4995 129.287 44.1989 129.046 44.9225C128.805 45.646 128.539 46.3454 128.636 47.0689H116.108C116.615 46.4419 117.001 45.7183 117.242 44.9225L124.749 24.2296C125.015 23.506 125.28 22.8066 125.184 22.0831H146.353C146.16 22.8066 146.546 23.506 146.812 24.2296C147.439 25.7972 154.222 43.4995 154.753 44.8983ZM136.843 37.8319L134.622 32.0437C134.429 31.5131 134.26 30.9584 134.139 30.4037C134.043 30.9584 133.898 31.5131 133.705 32.0437C133.632 32.2848 132.691 34.8172 131.605 37.8319H136.843ZM35.1955 24.2055C35.1955 23.4819 35.1955 22.7825 35.5576 22.059H19.0469C19.409 22.7825 19.409 23.4819 19.409 24.2055V44.8983C19.409 45.6219 19.409 46.3213 19.0469 47.0448H35.5576C35.1955 46.3213 35.1955 45.6219 35.1955 44.8983V24.2055ZM149.684 24.0366C149.636 25.8455 151.06 27.3649 152.895 27.4131C154.705 27.4613 156.226 26.0384 156.274 24.2055C156.274 24.1572 156.274 24.0849 156.274 24.0366C156.298 22.2519 154.898 20.7808 153.112 20.7566C153.064 20.7566 153.04 20.7566 152.991 20.7566C151.229 20.6843 149.757 22.059 149.708 23.8196C149.66 23.8919 149.66 23.9643 149.684 24.0366H149.684ZM155.598 24.0366C155.646 25.4837 154.488 26.7137 153.04 26.7378C151.591 26.786 150.36 25.6284 150.336 24.1813C150.336 24.1331 150.336 24.0849 150.336 24.0125C150.288 22.6137 151.374 21.4319 152.774 21.3837C152.846 21.3837 152.895 21.3837 152.967 21.3837C154.391 21.3596 155.574 22.4931 155.598 23.916C155.598 23.9643 155.598 24.0125 155.598 24.0366ZM154.584 26.0143H153.933L153.16 24.6155H152.315V26.0143H151.736V22.059H153.208C153.908 22.0831 154.44 22.6378 154.44 23.3372C154.44 23.8196 154.174 24.2537 153.74 24.4949L154.584 26.0143ZM153.112 24.0366C153.498 24.0608 153.836 23.7713 153.836 23.3855C153.836 22.9996 153.571 22.6619 153.184 22.6619C153.16 22.6619 153.136 22.6619 153.112 22.6619H152.315V24.0607H153.112" fill="#0058A3"/>
</g>
<defs>
<clipPath id="clip0">
<rect width="170" height="70" fill="white"/>
</clipPath>
</defs>
</svg>
