<svg width="67" height="37" viewBox="0 0 67 37" fill="none" xmlns="http://www.w3.org/2000/svg">
<g clip-path="url(#clip0)">
<path d="M0.593915 33.9794C0.7167 33.8562 0.865066 33.7586 1.02878 33.6815C1.19249 33.6096 1.37156 33.5737 1.55574 33.5737H2.36407C2.39477 33.5737 2.41012 33.5583 2.41012 33.5275C2.41012 33.4966 2.38965 33.4812 2.35384 33.4812H1.56085C1.36132 33.4812 1.17203 33.5172 0.992968 33.5942C0.813905 33.6713 0.660424 33.774 0.527406 33.9075C0.394388 34.041 0.292067 34.1951 0.215326 34.3749C0.138585 34.5546 0.0976562 34.7447 0.0976562 34.9501C0.0976562 35.1555 0.138585 35.3455 0.215326 35.5202C0.292067 35.6999 0.399504 35.854 0.527406 35.9824C0.660424 36.1159 0.813905 36.2186 0.992968 36.2957C1.17203 36.3727 1.36132 36.4087 1.56085 36.4087H2.38454C2.405 36.3984 2.41523 36.383 2.41523 36.3624C2.41523 36.3316 2.39477 36.3162 2.35896 36.3162H1.56085C1.37156 36.3162 1.19761 36.2803 1.0339 36.2084C0.870182 36.1365 0.721816 36.0389 0.599031 35.9105C0.476245 35.7872 0.37904 35.6434 0.302299 35.4739C0.230674 35.3096 0.194862 35.1298 0.194862 34.945C0.194862 34.7549 0.230674 34.5752 0.302299 34.4108C0.373924 34.2465 0.471129 34.1027 0.593915 33.9794ZM6.69738 33.7688C6.60529 33.6815 6.50297 33.6096 6.38019 33.5583C6.2574 33.5069 6.1295 33.4812 5.99136 33.4812H4.99885V36.3727C4.99885 36.4035 5.0142 36.4189 5.04489 36.4189C5.07559 36.4189 5.09094 36.3984 5.09094 36.3573V35.4637H5.6537L6.58483 36.3933C6.59506 36.4087 6.60529 36.4138 6.62576 36.4138C6.65645 36.4138 6.6718 36.3984 6.6718 36.3676C6.6718 36.3522 6.66157 36.3419 6.64622 36.3265L5.78672 35.4637H5.99136C6.1295 35.4637 6.2574 35.438 6.38019 35.3866C6.50297 35.3353 6.60529 35.2634 6.69738 35.1761C6.78947 35.0888 6.85598 34.9809 6.90714 34.8576C6.9583 34.7344 6.98388 34.606 6.98388 34.4673C6.98388 34.3287 6.9583 34.2003 6.90714 34.077C6.8611 33.964 6.78947 33.8562 6.69738 33.7688ZM6.82017 34.8217C6.77412 34.9295 6.70761 35.0271 6.63087 35.1093C6.54902 35.1915 6.45693 35.2582 6.34437 35.3045C6.23694 35.3507 6.11927 35.3764 5.99648 35.3764H5.09605V33.5737H5.99648C6.11927 33.5737 6.23182 33.5994 6.34437 33.6456C6.45181 33.6918 6.54902 33.7586 6.63087 33.8407C6.71273 33.9229 6.77412 34.0205 6.82017 34.1284C6.86621 34.2362 6.89179 34.3543 6.89179 34.4776C6.88668 34.6008 6.86621 34.7138 6.82017 34.8217ZM9.66982 33.5737H11.2558C11.2865 33.5737 11.3018 33.5583 11.3018 33.5275C11.3018 33.4966 11.2814 33.4812 11.2404 33.4812H9.56749V36.4189H11.2558C11.2865 36.4189 11.3018 36.4035 11.3018 36.3727C11.3018 36.3419 11.2814 36.3265 11.2456 36.3265H9.65958V34.9758H9.9512C9.9819 34.9758 9.99724 34.9604 9.99724 34.9295C9.99724 34.8987 9.97678 34.8833 9.93585 34.8833H9.65447C9.65447 34.6573 9.65447 34.4416 9.65447 34.2311C9.66982 34.0154 9.66982 33.7997 9.66982 33.5737ZM13.8548 36.4138H15.3282C15.3589 36.4138 15.3742 36.3984 15.3742 36.3676C15.3742 36.3368 15.3538 36.3214 15.318 36.3214H14.0082L15.364 33.6764L16.73 36.3984C16.7402 36.4138 16.7505 36.4189 16.7709 36.4189C16.8016 36.4189 16.817 36.4035 16.817 36.3778V36.3573L15.3589 33.4658L13.8548 36.4138ZM21.7284 33.4812H19.4722C19.4415 33.4812 19.4313 33.4966 19.4313 33.5275C19.4313 33.5583 19.4466 33.5737 19.4722 33.5737H20.5926V36.3676C20.5926 36.3984 20.608 36.4138 20.6387 36.4138C20.6694 36.4138 20.6847 36.3933 20.6847 36.3573V33.5737H21.7284C21.7591 33.5737 21.7744 33.5583 21.7744 33.5275C21.7744 33.5121 21.7693 33.5018 21.7642 33.4915C21.7488 33.4812 21.7386 33.4812 21.7284 33.4812ZM24.3887 33.4812C24.358 33.4812 24.3427 33.4966 24.3427 33.5223V36.3676C24.3427 36.383 24.3478 36.3933 24.3529 36.4035C24.3632 36.4138 24.3734 36.4189 24.3887 36.4189C24.4041 36.4189 24.4143 36.4138 24.4245 36.4035C24.4348 36.3933 24.4399 36.383 24.4399 36.3676V33.5172C24.4297 33.4915 24.4143 33.4812 24.3887 33.4812ZM29.8834 33.4812C29.8629 33.4812 29.8476 33.4915 29.8373 33.5069C29.6071 33.9743 29.3769 34.4314 29.1416 34.8833C28.9113 35.3353 28.6811 35.7924 28.4458 36.2546L27.0798 33.5121C27.0696 33.4915 27.0593 33.4812 27.0389 33.4812C27.0082 33.4812 26.9928 33.4966 26.9928 33.5275C26.9928 33.5429 26.9979 33.5531 27.003 33.5583L28.4458 36.4754L29.9243 33.5583C29.9294 33.5531 29.9294 33.548 29.9294 33.548C29.9294 33.5429 29.9294 33.5377 29.9294 33.5275C29.9294 33.4966 29.9141 33.4812 29.8834 33.4812ZM32.6358 33.5737H34.2218C34.2525 33.5737 34.2679 33.5583 34.2679 33.5275C34.2679 33.4966 34.2474 33.4812 34.2065 33.4812H32.5386V36.4189H34.2269C34.2576 36.4189 34.273 36.4035 34.273 36.3727C34.273 36.3419 34.2525 36.3265 34.2167 36.3265H32.6307V34.9758H32.9223C32.953 34.9758 32.9684 34.9604 32.9684 34.9295C32.9684 34.8987 32.9479 34.8833 32.907 34.8833H32.6256C32.6256 34.6573 32.6256 34.4416 32.6256 34.2311C32.6358 34.0154 32.6358 33.7997 32.6358 33.5737ZM39.9109 36.4138H41.3843C41.415 36.4138 41.4304 36.3984 41.4304 36.3676C41.4304 36.3368 41.4099 36.3214 41.3741 36.3214H40.0644L41.4201 33.6764L42.7861 36.3984C42.7963 36.4138 42.8066 36.4189 42.827 36.4189C42.8577 36.4189 42.8731 36.4035 42.8731 36.3778V36.3573L41.415 33.4658L39.9109 36.4138ZM47.0478 34.4776C47.0478 34.5084 47.0683 34.5238 47.1092 34.5238H47.7538V36.3214H46.9557C46.7664 36.3214 46.5925 36.2854 46.4287 36.2135C46.265 36.1416 46.1167 36.044 45.9939 35.9156C45.8711 35.7924 45.7739 35.6486 45.6972 35.4791C45.6255 35.3147 45.5897 35.135 45.5897 34.9501C45.5897 34.7601 45.6255 34.5803 45.6972 34.416C45.7688 34.2516 45.866 34.1027 45.9939 33.9794C46.1167 33.8562 46.265 33.7586 46.4287 33.6815C46.5925 33.6096 46.7715 33.5737 46.9557 33.5737H47.0683C47.099 33.5737 47.1143 33.5583 47.1143 33.5275C47.1143 33.4966 47.0938 33.4812 47.0529 33.4812H46.9506C46.7459 33.4812 46.5567 33.5172 46.3776 33.5942C46.1985 33.6713 46.045 33.774 45.912 33.9075C45.779 34.041 45.6767 34.1951 45.5999 34.3749C45.5232 34.5546 45.4874 34.7447 45.4874 34.9501C45.4874 35.1555 45.5232 35.3455 45.5999 35.5202C45.6767 35.6999 45.779 35.854 45.912 35.9824C46.045 36.1159 46.1985 36.2186 46.3776 36.2957C46.5567 36.3727 46.7459 36.4087 46.9506 36.4087H47.8459V34.4262H47.0836C47.058 34.4365 47.0478 34.4519 47.0478 34.4776ZM50.5421 33.5737H52.128C52.1587 33.5737 52.1741 33.5583 52.1741 33.5275C52.1741 33.4966 52.1536 33.4812 52.1127 33.4812H50.4397V36.4189H52.128C52.1587 36.4189 52.1741 36.4035 52.1741 36.3727C52.1741 36.3419 52.1536 36.3265 52.1178 36.3265H50.5318V34.9758H50.8235C50.8541 34.9758 50.8695 34.9604 50.8695 34.9295C50.8695 34.8987 50.849 34.8833 50.8081 34.8833H50.5267C50.5267 34.6573 50.5267 34.4416 50.5267 34.2311C50.5369 34.0154 50.5421 33.7997 50.5421 33.5737ZM57.1776 33.4761C57.1469 33.4761 57.1316 33.4966 57.1316 33.5326V36.1878L54.7475 33.4607V36.3727C54.7475 36.4035 54.7628 36.4189 54.7935 36.4189C54.8242 36.4189 54.8396 36.3984 54.8396 36.3624V33.7226L57.2236 36.4498V33.5172C57.2236 33.4915 57.2083 33.4761 57.1776 33.4761ZM60.324 33.9794C60.4468 33.8562 60.5951 33.7586 60.7588 33.6815C60.9226 33.6096 61.1016 33.5737 61.2858 33.5737H62.0941C62.1248 33.5737 62.1402 33.5583 62.1402 33.5275C62.1402 33.4966 62.1197 33.4812 62.0839 33.4812H61.2807C61.0812 33.4812 60.8919 33.5172 60.7128 33.5942C60.5337 33.6713 60.3803 33.774 60.2472 33.9075C60.1142 34.041 60.0119 34.1951 59.9352 34.3749C59.8584 34.5546 59.8175 34.7447 59.8175 34.9501C59.8175 35.1555 59.8584 35.3455 59.9352 35.5202C60.0119 35.6999 60.1193 35.854 60.2472 35.9824C60.3803 36.1159 60.5337 36.2186 60.7128 36.2957C60.8919 36.3727 61.0812 36.4087 61.2807 36.4087H62.1044C62.1248 36.3984 62.1351 36.383 62.1351 36.3624C62.1351 36.3316 62.1146 36.3162 62.0788 36.3162H61.2756C61.0863 36.3162 60.9123 36.2803 60.7486 36.2084C60.5849 36.1365 60.4365 36.0389 60.3138 35.9105C60.191 35.7872 60.0938 35.6434 60.017 35.4739C59.9454 35.3096 59.9096 35.1298 59.9096 34.945C59.9096 34.7549 59.9454 34.5752 60.017 34.4108C60.0989 34.2465 60.2012 34.1027 60.324 33.9794ZM66.8674 33.4812C66.8623 33.4812 66.8572 33.4812 66.8521 33.4812C66.847 33.4812 66.8419 33.4864 66.8367 33.4966C66.673 33.7278 66.5042 33.9589 66.3354 34.1848C66.1665 34.4108 66.0028 34.6368 65.834 34.873C65.7061 34.7036 65.5935 34.5495 65.4963 34.4211C65.3991 34.2927 65.3121 34.1797 65.2405 34.0821C65.1689 33.9846 65.1075 33.9024 65.0563 33.8356C65.0052 33.7688 64.9694 33.7124 64.9336 33.6713C64.8619 33.5685 64.8159 33.5121 64.8057 33.4966C64.7954 33.4864 64.7852 33.4864 64.775 33.4864C64.7391 33.4864 64.7238 33.5018 64.7238 33.5326C64.7238 33.548 64.7289 33.5583 64.734 33.5634L65.7777 34.9706V36.3727C65.7777 36.4035 65.7931 36.4189 65.8289 36.4189C65.8596 36.4189 65.8698 36.3984 65.8698 36.3624V34.9706L66.8981 33.5685C66.9084 33.5583 66.9135 33.5429 66.9135 33.5275C66.9237 33.4966 66.9084 33.4812 66.8674 33.4812Z" fill="#141414"/>
<path d="M57.299 36.6605L54.9149 33.9333V36.378C54.9098 36.4704 54.8433 36.5064 54.7921 36.5064C54.7154 36.5064 54.6693 36.455 54.6693 36.3831V33.2605L57.0534 35.9877V33.5327C57.0534 33.4557 57.1046 33.3992 57.1762 33.3992C57.2478 33.3992 57.299 33.4505 57.299 33.5224V36.6605ZM57.1762 33.5532V33.4762V33.5532ZM28.4393 36.6502L26.9249 33.5943C26.9147 33.5738 26.9096 33.5532 26.9096 33.5276C26.9096 33.4505 26.9607 33.4043 27.0324 33.4043C27.0835 33.4043 27.1244 33.4351 27.1449 33.4813L28.4444 36.0852C28.6542 35.6692 28.8639 35.2584 29.0737 34.8475C29.3039 34.3955 29.5392 33.9333 29.7643 33.4711C29.7899 33.4248 29.8308 33.3992 29.882 33.3992C29.9587 33.3992 30.0048 33.4505 30.0048 33.5224C30.0048 33.543 30.0048 33.5584 29.9946 33.5789L29.9894 33.5892L28.4393 36.6502ZM5.04351 36.5012C4.96677 36.5012 4.92072 36.4499 4.92072 36.378V33.4043H5.9951C6.14346 33.4043 6.2816 33.43 6.41461 33.4865C6.54252 33.543 6.66019 33.62 6.75739 33.7176C6.8546 33.8152 6.93134 33.9282 6.98761 34.0617C7.04389 34.1901 7.06947 34.3339 7.06947 34.4828C7.06947 34.6318 7.04389 34.7705 6.98761 34.904C6.93134 35.0324 6.8546 35.1505 6.75739 35.2481C6.66019 35.3457 6.54763 35.4227 6.41461 35.4792C6.28671 35.5357 6.14346 35.5614 5.9951 35.5614H5.97463L6.70111 36.2907C6.74204 36.3266 6.74716 36.3626 6.74716 36.3883C6.74716 36.4653 6.696 36.5115 6.62437 36.5115C6.58344 36.5115 6.54763 36.4961 6.52717 36.4653L5.62674 35.5665H5.17653V36.3831C5.17141 36.455 5.11002 36.5012 5.04351 36.5012ZM5.17141 35.2994H5.9951C6.10253 35.2994 6.20997 35.2789 6.31229 35.2327C6.4095 35.1916 6.50159 35.13 6.57321 35.0529C6.64484 34.9759 6.70623 34.8886 6.74716 34.791C6.78809 34.6934 6.81367 34.5856 6.81367 34.4726C6.81367 34.3596 6.7932 34.2569 6.74716 34.1541C6.70623 34.0514 6.64484 33.9641 6.57321 33.8922C6.50159 33.8152 6.41461 33.7587 6.31229 33.7125C6.21509 33.6714 6.10765 33.6457 5.9951 33.6457H5.17141V35.2994ZM65.8377 36.491C65.761 36.491 65.7098 36.4396 65.7098 36.3677V34.9913L64.6866 33.6046C64.6661 33.5841 64.6559 33.5532 64.6559 33.5224C64.6559 33.4454 64.7071 33.3992 64.7838 33.3992C64.8196 33.3992 64.8452 33.4094 64.8708 33.4351L64.881 33.4454C64.8861 33.4557 64.9117 33.4865 65.0038 33.6149C65.0345 33.6611 65.0754 33.7176 65.1266 33.7792C65.1778 33.846 65.234 33.9282 65.3057 34.0206C65.3773 34.1182 65.4643 34.2312 65.5615 34.3596C65.6433 34.4674 65.7354 34.5907 65.8377 34.7294C65.9861 34.5239 66.1345 34.3236 66.2777 34.1285C66.4465 33.9025 66.6103 33.6714 66.7791 33.4454L66.7893 33.4351C66.8047 33.4197 66.82 33.4094 66.8354 33.4043C66.8456 33.3992 66.8609 33.3992 66.8763 33.3992C66.9684 33.3992 67.0144 33.4608 67.0144 33.5224C67.0144 33.5584 67.0042 33.5892 66.9786 33.6097L65.9707 34.9862V36.3523C65.9605 36.4499 65.8991 36.491 65.8377 36.491ZM62.1235 36.491H61.2844C61.0747 36.491 60.8751 36.4499 60.6858 36.3677C60.5017 36.2855 60.3379 36.1777 60.1998 36.039C60.0617 35.9003 59.9491 35.736 59.8673 35.5511C59.7854 35.3662 59.7445 35.1608 59.7445 34.9502C59.7445 34.7345 59.7854 34.5342 59.8673 34.3442C59.9491 34.1593 60.0617 33.9949 60.1947 33.8511C60.3328 33.7125 60.4965 33.5995 60.6807 33.5173C60.8649 33.4351 61.0696 33.394 61.2793 33.394H62.0876C62.1797 33.3992 62.2155 33.4659 62.2155 33.5173C62.2155 33.5943 62.1644 33.6406 62.0928 33.6406H61.2844C61.1105 33.6406 60.9416 33.6765 60.7882 33.7433C60.6296 33.81 60.4914 33.9076 60.3789 34.0206C60.2612 34.1387 60.1691 34.2774 60.1026 34.4315C60.0361 34.5856 60.0003 34.755 60.0003 34.9348C60.0003 35.1094 60.0361 35.2789 60.1026 35.433C60.1691 35.5871 60.2663 35.7257 60.3789 35.8439C60.4965 35.962 60.6347 36.0544 60.7882 36.1212C60.9416 36.188 61.1105 36.2239 61.2844 36.2239H62.0928C62.1848 36.229 62.2207 36.2958 62.2207 36.3472C62.2207 36.4037 62.19 36.4499 62.1388 36.4653L62.1235 36.491ZM52.1267 36.491H50.3616V33.3992H52.1113C52.2034 33.3992 52.2495 33.4608 52.2495 33.5224C52.2495 33.5995 52.1983 33.6457 52.1267 33.6457H50.6174C50.6174 33.8409 50.6174 34.036 50.6174 34.2209C50.6174 34.4058 50.6174 34.5958 50.6174 34.7961H50.8221C50.9142 34.7961 50.9602 34.8578 50.9602 34.9194C50.9602 34.9964 50.909 35.0427 50.8374 35.0427H50.6225V36.2393H52.1318C52.2085 36.2393 52.2648 36.2907 52.2648 36.3626C52.2494 36.4396 52.2034 36.491 52.1267 36.491ZM47.9264 36.491H46.9543C46.7394 36.491 46.5399 36.4499 46.3506 36.3677C46.1664 36.2855 46.0027 36.1777 45.8646 36.039C45.7265 35.9003 45.6139 35.736 45.5372 35.5511C45.4553 35.3662 45.4144 35.1608 45.4144 34.9502C45.4144 34.7345 45.4553 34.5342 45.5372 34.3442C45.619 34.1593 45.7265 33.9898 45.8646 33.8511C46.0027 33.7125 46.1664 33.5995 46.3506 33.5173C46.5348 33.4351 46.7394 33.394 46.9543 33.394H47.0566C47.1487 33.394 47.1948 33.4557 47.1948 33.5173C47.1948 33.5943 47.1436 33.6406 47.072 33.6406H46.9594C46.7855 33.6406 46.6167 33.6765 46.4632 33.7433C46.3046 33.81 46.1664 33.9076 46.0539 34.0206C45.9362 34.1387 45.8441 34.2774 45.7776 34.4315C45.7111 34.5856 45.6753 34.755 45.6753 34.9348C45.6753 35.1094 45.7111 35.2789 45.7776 35.433C45.8441 35.5871 45.9413 35.7257 46.0539 35.8439C46.1716 35.962 46.3097 36.0544 46.4632 36.1212C46.6167 36.188 46.7855 36.2239 46.9646 36.2239H47.6859V34.5856H47.118C47.0259 34.5856 46.9799 34.5239 46.9799 34.4623C46.9799 34.4007 47.0208 34.3493 47.0822 34.339H47.0976H47.9366V36.491H47.9264ZM47.0925 34.4777H47.118H47.0925ZM47.0822 34.4777H47.0413H47.0822ZM42.8308 36.491C42.7643 36.491 42.7336 36.455 42.7233 36.4345L42.7182 36.4293L41.4187 33.8409L40.1909 36.2393H41.3727C41.4494 36.2393 41.5057 36.2907 41.5057 36.3626C41.5057 36.4396 41.4546 36.4858 41.3829 36.4858H39.7816L41.4187 33.2862L42.9536 36.3266V36.3626C42.9587 36.4448 42.9075 36.491 42.8308 36.491ZM34.2255 36.491H32.4605V33.3992H34.2102C34.3023 33.3992 34.3483 33.4608 34.3483 33.5224C34.3483 33.5995 34.2972 33.6457 34.2255 33.6457H32.7163C32.7163 33.8409 32.7163 34.036 32.7163 34.2209C32.7163 34.4058 32.7163 34.5958 32.7163 34.7961H32.921C33.013 34.7961 33.0591 34.8578 33.0591 34.9194C33.0591 34.9964 33.0079 35.0427 32.9363 35.0427H32.7214V36.2393H34.2307C34.3074 36.2393 34.3637 36.2907 34.3637 36.3626C34.3483 36.4396 34.2972 36.491 34.2255 36.491ZM24.3874 36.491C24.3362 36.491 24.3106 36.4704 24.2953 36.4499C24.2748 36.4293 24.2646 36.3985 24.2646 36.3677V33.5224C24.2646 33.4505 24.3157 33.4043 24.3874 33.4043C24.4487 33.4043 24.4999 33.4454 24.5101 33.507V33.5224V36.3728C24.5101 36.4088 24.4999 36.4396 24.4743 36.4602C24.4539 36.4807 24.4232 36.491 24.3874 36.491ZM20.6322 36.491C20.5554 36.491 20.5094 36.4396 20.5094 36.3677V33.6508H19.4657C19.4094 33.6508 19.348 33.6097 19.348 33.5276C19.348 33.4505 19.3941 33.4043 19.4657 33.4043H21.7219C21.7577 33.4043 21.7884 33.4197 21.814 33.4454C21.8344 33.4711 21.8447 33.4967 21.8447 33.5276C21.8447 33.6046 21.7935 33.6508 21.7219 33.6508H20.7549V36.3574C20.7549 36.4396 20.7038 36.491 20.6322 36.491ZM16.7798 36.491C16.7133 36.491 16.6826 36.455 16.6723 36.4345L16.6672 36.4293L15.3677 33.8409L14.1399 36.2393H15.3217C15.3984 36.2393 15.4547 36.2907 15.4547 36.3626C15.4547 36.4396 15.4035 36.4858 15.3319 36.4858H13.7306L15.3677 33.2862L16.9026 36.3266V36.3626C16.9026 36.4448 16.8514 36.491 16.7798 36.491ZM11.2595 36.491H9.49449V33.3992H11.2442C11.3363 33.3992 11.3823 33.4608 11.3823 33.5224C11.3823 33.5995 11.3312 33.6457 11.2595 33.6457H9.75029C9.75029 33.8409 9.75029 34.036 9.75029 34.2209C9.75029 34.4058 9.75029 34.5958 9.75029 34.7961H9.95493C10.047 34.7961 10.0931 34.8578 10.0931 34.9194C10.0931 34.9964 10.0419 35.0427 9.97028 35.0427H9.75541V36.2393H11.2646C11.3414 36.2393 11.3977 36.2907 11.3977 36.3626C11.3823 36.4396 11.3312 36.491 11.2595 36.491ZM2.3985 36.491H1.55947C1.34971 36.491 1.15018 36.4499 0.960887 36.3677C0.776709 36.2855 0.612995 36.1777 0.474861 36.039C0.336727 35.9003 0.224174 35.736 0.142317 35.5511C0.0604598 35.3662 0.0195312 35.1608 0.0195312 34.9502C0.0195312 34.7345 0.0604598 34.5342 0.142317 34.3442C0.224174 34.1593 0.336727 33.9949 0.469745 33.8511C0.607879 33.7125 0.771593 33.5995 0.955771 33.5173C1.13995 33.4351 1.34459 33.394 1.55435 33.394H2.36269C2.45478 33.3992 2.49059 33.4659 2.49059 33.5173C2.49059 33.5943 2.43943 33.6406 2.36781 33.6406H1.55947C1.38552 33.6406 1.21669 33.6765 1.06321 33.7433C0.904611 33.81 0.766477 33.9076 0.653924 34.0206C0.536254 34.1387 0.444165 34.2774 0.377656 34.4315C0.311147 34.5856 0.275335 34.755 0.275335 34.9348C0.275335 35.1094 0.311147 35.2789 0.377656 35.433C0.444165 35.5871 0.54137 35.7257 0.653924 35.8439C0.771593 35.962 0.909727 36.0544 1.06321 36.1212C1.21669 36.188 1.38552 36.2239 1.56458 36.2239H2.37292C2.46501 36.229 2.50082 36.2958 2.50082 36.3472C2.50082 36.4037 2.47013 36.4499 2.41897 36.4653L2.3985 36.491Z" fill="#141414"/>
<path fill-rule="evenodd" clip-rule="evenodd" d="M32.3847 25.0228L46.4078 0.678955H42.7447C40.2225 5.05982 35.8227 12.7071 32.3182 18.8033L31.121 16.6873L40.3248 0.678955H36.6617C34.4669 4.49488 31.8168 9.10686 29.3048 13.4775L28.1025 11.3564C30.2001 7.70991 32.3591 3.95562 34.2418 0.684091H30.5787C29.2179 3.05171 27.7495 5.60422 26.2863 8.14646L25.1148 6.07158H19.0778H10.3856C7.3569 6.07158 5.88348 6.22566 5.88348 6.22566C7.39783 3.93507 10.3856 3.96589 10.3856 3.96589H23.9023L22.0707 0.781672H10.5903C5.36164 0.781672 1.12553 5.03414 1.12553 10.283C1.12553 15.5318 5.36164 19.8356 10.5903 19.8356H16.6272C17.1951 19.851 17.6504 20.3132 17.6504 20.8885C17.6504 21.4637 17.1951 21.9259 16.6272 21.9413H4.84491L3.01336 25.1255H8.16013C11.7414 25.1255 15.4096 25.1255 15.9058 25.1255C15.9417 25.1255 16.0849 25.1255 16.131 25.1255C16.704 25.1204 20.8735 24.9355 20.8735 20.041C20.8735 20.041 22.613 20.2773 22.613 22.4549C22.613 22.4549 22.613 27.149 16.131 27.1799C16.1105 27.1799 15.9519 27.1799 15.9263 27.1799C15.1947 27.1799 4.97793 27.1799 1.83667 27.1799L0 30.3641H16.6784C20.8326 30.3384 24.3576 27.6318 25.6059 23.8724L29.3151 30.3641L31.1568 27.1799L20.8582 9.2558H23.2781L32.3847 25.0228ZM10.5903 9.2558H17.2002L18.5202 11.5515C17.9267 11.4283 17.3077 11.3666 16.6784 11.3615H10.5903C10.0224 11.3461 9.56704 10.8839 9.56704 10.3086C9.56704 9.73343 10.0224 9.27121 10.5903 9.2558ZM21.4363 16.8055C21.4363 16.8055 19.8503 16.6514 17.0877 16.6514C17.0877 16.6514 12.3911 16.6514 11.3526 16.6514C11.2246 16.6514 11.0609 16.6514 11.0405 16.6514C4.20029 16.6206 4.75794 11.9264 4.75794 11.9264C4.75794 9.74884 6.4974 9.51259 6.4974 9.51259C6.4974 14.3711 10.4112 14.5508 11.02 14.5457C11.0712 14.5457 11.24 14.5457 11.3935 14.5457C12.5139 14.5457 17.0825 14.5457 17.0825 14.5457C17.0825 14.5457 19.7378 14.2941 21.4363 16.8055Z" fill="#FF9600"/>
<path fill-rule="evenodd" clip-rule="evenodd" d="M49.5831 0.83303L49.5217 0.678955L32.168 30.3641C32.4903 30.4873 41.5048 30.3641 41.5048 30.3641L46.3906 21.8643C48.0534 24.7557 49.7724 27.7551 51.2816 30.3846H66.8549L49.5831 0.83303ZM48.2222 18.6801L49.4501 16.5487C50.8467 18.9779 52.3304 21.6229 53.7066 24.0162H57.3697L49.4091 10.2521L39.663 27.2004C38.7626 27.2004 37.9491 27.1953 37.2431 27.1953L49.4449 5.97914C49.8235 6.63652 59.1859 22.9633 61.6212 27.2055H53.1132L48.2222 18.6801Z" fill="#141414"/>
</g>
<defs>
<clipPath id="clip0">
<rect width="67" height="35.9817" fill="white" transform="translate(0 0.678955)"/>
</clipPath>
</defs>
</svg>
