<svg width="90" height="90" viewBox="0 0 90 90" fill="none" xmlns="http://www.w3.org/2000/svg">
<rect width="90" height="90" rx="45" fill="#F8F8F8"/>
<g filter="url(#filter0_i)">
<path fill-rule="evenodd" clip-rule="evenodd" d="M40.8477 54L41.5284 53.6013L55.4119 45.3987L56.0784 45L55.4119 44.6013L41.5284 36.3987L40.8477 36V54Z" fill="#26CF92"/>
</g>
<path d="M40.3477 54V54.8724L41.1004 54.4314L41.7811 54.0327L41.7827 54.0317L55.6662 45.8292L55.6662 45.8292L55.6686 45.8278L56.3351 45.4291L57.0524 45L56.3351 44.5709L55.6686 44.1722L55.6662 44.1708L41.7827 35.9683L41.7827 35.9682L41.7811 35.9673L41.1004 35.5686L40.3477 35.1277V36V54Z" stroke="#26CF92"/>
<defs>
<filter id="filter0_i" x="39.8477" y="34.2554" width="20.1787" height="23.4894" filterUnits="userSpaceOnUse" color-interpolation-filters="sRGB">
<feFlood flood-opacity="0" result="BackgroundImageFix"/>
<feBlend mode="normal" in="SourceGraphic" in2="BackgroundImageFix" result="shape"/>
<feColorMatrix in="SourceAlpha" type="matrix" values="0 0 0 0 0 0 0 0 0 0 0 0 0 0 0 0 0 0 127 0" result="hardAlpha"/>
<feOffset dx="2" dy="2"/>
<feGaussianBlur stdDeviation="3"/>
<feComposite in2="hardAlpha" operator="arithmetic" k2="-1" k3="1"/>
<feColorMatrix type="matrix" values="0 0 0 0 0.294118 0 0 0 0 0.333333 0 0 0 0 0.454902 0 0 0 0.3 0"/>
<feBlend mode="normal" in2="shape" result="effect1_innerShadow"/>
</filter>
</defs>
</svg>
